<svg width="1446" height="122" viewBox="0 0 1446 122" fill="none" xmlns="http://www.w3.org/2000/svg">
<path d="M507.034 51.5145C505.822 51.5145 504.732 51.0906 503.763 50.2427C502.915 49.2736 502.491 48.1835 502.491 46.9722V28.8027H448.164C446.953 28.8027 445.863 28.3787 444.894 27.5308C444.046 26.5617 443.622 25.4716 443.622 24.2603V10.088C443.622 8.7556 444.046 7.66542 444.894 6.81751C445.863 5.9696 446.953 5.54565 448.164 5.54565L521.569 5.54565C522.902 5.54565 523.992 5.9696 524.84 6.81751C525.688 7.66542 526.112 8.7556 526.112 10.088V46.9722C526.112 48.1835 525.688 49.2736 524.84 50.2427C523.992 51.0906 522.902 51.5145 521.569 51.5145H507.034Z" fill="black"/>
<path d="M696.332 51.5145C695.121 51.5145 694.031 51.0906 693.062 50.2427C692.214 49.2736 691.79 48.1835 691.79 46.9722V28.8027H637.463C636.252 28.8027 635.161 28.3787 634.192 27.5308C633.344 26.5617 632.92 25.4716 632.92 24.2603V10.088C632.92 8.7556 633.344 7.66542 634.192 6.81751C635.161 5.9696 636.252 5.54565 637.463 5.54565L710.868 5.54565C712.2 5.54565 713.29 5.9696 714.138 6.81751C714.986 7.66542 715.41 8.7556 715.41 10.088V46.9722C715.41 48.1835 714.986 49.2736 714.138 50.2427C713.29 51.0906 712.2 51.5145 710.868 51.5145H696.332Z" fill="black"/>
<path fill-rule="evenodd" clip-rule="evenodd" d="M626.256 104.368C617.321 113.303 602.978 121.999 581.791 121.999C560.595 121.999 546.336 113.293 537.488 104.313C533.143 99.9041 530.161 95.4989 528.247 92.161C527.286 90.4851 526.581 89.0559 526.098 87.9978C525.857 87.4679 525.67 87.0286 525.534 86.695C525.465 86.5281 525.41 86.3875 525.366 86.2749C525.344 86.2186 525.325 86.1693 525.309 86.1272L525.288 86.0695L525.279 86.0448L525.274 86.0334C525.272 86.0281 525.271 86.0228 534.951 82.4639C544.631 78.9051 544.629 78.9 544.627 78.8951L544.624 78.8858L544.617 78.869L544.608 78.8431L544.599 78.8207C544.598 78.8187 544.607 78.8421 544.627 78.8893C544.665 78.9837 544.744 79.1722 544.867 79.4414C545.113 79.9813 545.53 80.8351 546.14 81.8987C547.368 84.0399 549.328 86.9402 552.181 89.8363C557.729 95.4672 566.89 101.372 581.791 101.372C596.703 101.372 605.995 95.4575 611.67 89.782C614.583 86.8693 616.596 83.9531 617.863 81.8007C618.492 80.7312 618.923 79.8723 619.179 79.3281C619.307 79.0568 619.39 78.8662 619.431 78.7699C619.45 78.7249 619.46 78.7007 619.46 78.6987L619.452 78.7198L619.442 78.7451L619.436 78.7616L619.432 78.7708C619.43 78.7756 619.429 78.7806 629.062 82.4639C638.695 86.1473 638.693 86.1525 638.691 86.1578L638.687 86.169L638.678 86.1934L638.655 86.2505C638.639 86.2922 638.62 86.341 638.597 86.3969C638.552 86.5086 638.495 86.6484 638.425 86.8143C638.284 87.1461 638.092 87.5833 637.843 88.1111C637.347 89.165 636.624 90.5889 635.642 92.259C633.685 95.5857 630.649 99.9749 626.256 104.368Z" fill="black"/>
<path d="M49.4159 121.996C39.0527 121.996 30.1622 120.467 22.7444 117.411C15.3266 114.354 9.70863 110.369 5.89063 105.457C2.18171 100.435 0.218172 94.9766 0 89.0815C0 88.2081 0.327259 87.444 0.981774 86.7889C1.74537 86.0248 2.61806 85.6427 3.59983 85.6427H24.2171C25.5261 85.6427 26.5624 85.9156 27.326 86.4614C28.1987 86.8981 29.0714 87.6077 29.9441 88.5902C31.3622 91.4286 33.653 93.7757 36.8165 95.6316C39.98 97.4875 44.1798 98.4154 49.4159 98.4154C55.6338 98.4154 60.379 97.4329 63.6516 95.4678C66.9242 93.5028 68.5605 90.8282 68.5605 87.444C68.5605 85.0423 67.6878 83.0772 65.9424 81.5489C64.3061 80.0205 61.688 78.6559 58.0882 77.455C54.4884 76.2542 49.1432 74.8896 42.0526 73.3612C28.9623 70.632 19.1446 66.6474 12.5994 61.4073C6.16335 56.058 2.94532 48.4708 2.94532 38.6456C2.94532 31.9864 4.79978 26.0367 8.5087 20.7966C12.2176 15.5565 17.5083 11.4627 24.3807 8.51514C31.2531 5.56759 39.2709 4.09381 48.4341 4.09381C57.9246 4.09381 66.1606 5.73134 73.1421 9.0064C80.1236 12.2815 85.4142 16.4299 89.014 21.4516C92.723 26.3642 94.6865 31.2222 94.9047 36.0256C94.9047 37.0081 94.5774 37.8269 93.9229 38.4819C93.2684 39.1369 92.4503 39.4644 91.4685 39.4644H69.8695C68.5605 39.4644 67.4696 39.2461 66.5969 38.8094C65.8333 38.3727 65.1243 37.6631 64.4697 36.6806C63.8152 34.1697 62.0153 32.0409 59.07 30.2943C56.2338 28.5476 52.6885 27.6742 48.4341 27.6742C43.5253 27.6742 39.7618 28.5476 37.1437 30.2943C34.5257 32.0409 33.2166 34.6064 33.2166 37.9906C33.2166 40.2832 33.9257 42.1936 35.3438 43.722C36.871 45.2503 39.2709 46.6695 42.5435 47.9795C45.9251 49.1804 50.7249 50.4358 56.9428 51.7459C67.0878 53.6017 75.1602 55.9488 81.1599 58.7872C87.2687 61.5164 91.7412 65.119 94.5774 69.5949C97.4137 73.9616 98.8318 79.4747 98.8318 86.1339C98.8318 93.4482 96.7046 99.8346 92.4503 105.293C88.305 110.642 82.4689 114.791 74.942 117.738C67.5241 120.577 59.0154 121.996 49.4159 121.996Z" fill="black"/>
<path d="M109.318 120.358C108.118 120.358 107.136 119.976 106.373 119.212C105.609 118.448 105.227 117.465 105.227 116.264V39.3007C105.227 38.0998 105.609 37.1173 106.373 36.3531C107.136 35.5889 108.118 35.2068 109.318 35.2068H127.154C128.354 35.2068 129.335 35.5889 130.099 36.3531C130.863 37.1173 131.244 38.0998 131.244 39.3007V44.8682C133.753 41.5932 137.08 38.9186 141.226 36.8444C145.48 34.661 150.225 33.5693 155.461 33.5693C167.461 33.5693 175.751 38.2636 180.333 47.652C182.951 43.5036 186.605 40.1194 191.296 37.4994C195.987 34.8793 201.005 33.5693 206.35 33.5693C215.295 33.5693 222.549 36.626 228.113 42.7395C233.785 48.7437 236.621 57.7501 236.621 69.7587V116.264C236.621 117.356 236.239 118.339 235.476 119.212C234.712 119.976 233.73 120.358 232.531 120.358H213.55C212.35 120.358 211.313 119.976 210.441 119.212C209.677 118.448 209.295 117.465 209.295 116.264V70.9049C209.295 65.4465 208.15 61.5164 205.859 59.1147C203.677 56.713 200.677 55.5122 196.859 55.5122C193.369 55.5122 190.478 56.7676 188.187 59.2785C185.896 61.6802 184.751 65.5557 184.751 70.9049V116.264C184.751 117.356 184.369 118.339 183.606 119.212C182.842 119.976 181.86 120.358 180.66 120.358H161.679C160.479 120.358 159.498 119.976 158.734 119.212C157.97 118.448 157.589 117.465 157.589 116.264V70.9049C157.589 65.5557 156.389 61.6802 153.989 59.2785C151.698 56.7676 148.753 55.5122 145.153 55.5122C141.662 55.5122 138.717 56.7676 136.317 59.2785C134.026 61.6802 132.881 65.5011 132.881 70.7412V116.264C132.881 117.356 132.499 118.339 131.735 119.212C130.972 119.976 129.99 120.358 128.79 120.358H109.318Z" fill="black"/>
<path d="M250.86 22.9254C249.66 22.9254 248.678 22.5433 247.914 21.7791C247.151 21.0149 246.769 20.0324 246.769 18.8316V4.09381C246.769 2.89296 247.151 1.91045 247.914 1.14626C248.678 0.382088 249.66 0 250.86 0H270.495C271.695 0 272.677 0.382088 273.44 1.14626C274.204 1.91045 274.586 2.89296 274.586 4.09381V18.8316C274.586 20.0324 274.204 21.0149 273.44 21.7791C272.677 22.5433 271.695 22.9254 270.495 22.9254H250.86ZM251.023 120.358C249.823 120.358 248.841 119.976 248.078 119.212C247.314 118.448 246.932 117.465 246.932 116.264V39.3007C246.932 38.0998 247.314 37.1173 248.078 36.3531C248.841 35.5889 249.823 35.2068 251.023 35.2068H270.331C271.531 35.2068 272.513 35.5889 273.277 36.3531C274.04 37.1173 274.422 38.0998 274.422 39.3007V116.264C274.422 117.356 274.04 118.339 273.277 119.212C272.513 119.976 271.531 120.358 270.331 120.358H251.023Z" fill="black"/>
<path d="M289.661 120.358C288.461 120.358 287.48 119.976 286.716 119.212C285.952 118.448 285.571 117.465 285.571 116.264V39.3007C285.571 38.0998 285.952 37.1173 286.716 36.3531C287.48 35.5889 288.461 35.2068 289.661 35.2068H308.479C309.679 35.2068 310.66 35.6435 311.424 36.5169C312.297 37.281 312.733 38.209 312.733 39.3007V45.8508C318.733 38.7548 326.805 35.2068 336.95 35.2068H344.15C345.35 35.2068 346.331 35.5889 347.095 36.3531C347.859 37.1173 348.24 38.0998 348.24 39.3007V56.1672C348.24 57.2589 347.859 58.2414 347.095 59.1147C346.331 59.8789 345.35 60.261 344.15 60.261H328.278C323.805 60.261 320.314 61.5164 317.805 64.0273C315.405 66.429 314.206 69.8678 314.206 74.3437V116.264C314.206 117.465 313.769 118.448 312.897 119.212C312.133 119.976 311.151 120.358 309.951 120.358H289.661Z" fill="black"/>
<path d="M355.784 120.358C354.693 120.358 353.711 119.976 352.839 119.212C352.075 118.339 351.693 117.356 351.693 116.264V8.18763C351.693 6.98678 352.075 6.00426 352.839 5.24009C353.711 4.47591 354.693 4.09381 355.784 4.09381H374.765C375.965 4.09381 376.947 4.47591 377.71 5.24009C378.474 6.00426 378.856 6.98678 378.856 8.18763V63.0448L401.6 37.9906C401.818 37.7723 402.2 37.3902 402.745 36.8444C403.4 36.2985 404.054 35.9164 404.709 35.6981C405.363 35.3706 406.127 35.2068 407 35.2068H428.926C429.908 35.2068 430.726 35.5889 431.38 36.3531C432.144 37.0081 432.526 37.8269 432.526 38.8094C432.526 40.0102 432.089 40.9382 431.217 41.5932L401.764 73.3612L435.308 114.136C436.18 115.009 436.617 115.828 436.617 116.592C436.617 117.684 436.235 118.612 435.471 119.376C434.817 120.031 433.944 120.358 432.853 120.358H410.436C409.018 120.358 407.927 120.14 407.163 119.703C406.509 119.267 405.691 118.557 404.709 117.574L378.856 86.4614V116.264C378.856 117.356 378.474 118.339 377.71 119.212C376.947 119.976 375.965 120.358 374.765 120.358H355.784Z" fill="black"/>
<path d="M782.782 121.996C772.127 121.996 762.986 120.478 755.36 117.441C747.733 114.405 741.957 110.447 738.032 105.567C734.218 100.579 732.199 95.1567 731.975 89.3009C731.975 88.4334 732.312 87.6743 732.985 87.0237C733.77 86.2646 734.667 85.885 735.676 85.885H756.874C758.22 85.885 759.285 86.1561 760.07 86.6983C760.968 87.1321 761.865 87.837 762.762 88.8129C764.22 91.6324 766.575 93.9638 769.828 95.8073C773.081 97.6508 777.399 98.5726 782.782 98.5726C789.175 98.5726 794.054 97.5966 797.418 95.6447C800.783 93.6928 802.466 91.036 802.466 87.6743C802.466 85.2886 801.568 83.3367 799.774 81.8185C798.091 80.3003 795.4 78.9448 791.698 77.752C787.997 76.5591 782.502 75.2036 775.211 73.6854C761.753 70.9744 751.659 67.0163 744.929 61.8112C738.312 56.4976 735.003 48.961 735.003 39.2013C735.003 32.5864 736.91 26.6764 740.723 21.4712C744.537 16.2661 749.976 12.1996 757.042 9.27168C764.108 6.34378 772.351 4.87982 781.773 4.87982C791.53 4.87982 799.998 6.50644 807.176 9.75966C814.354 13.0129 819.794 17.1336 823.495 22.1219C827.308 27.0017 829.327 31.8273 829.551 36.5987C829.551 37.5747 829.215 38.388 828.542 39.0386C827.869 39.6893 827.028 40.0146 826.018 40.0146H803.811C802.466 40.0146 801.344 39.7977 800.447 39.364C799.662 38.9302 798.933 38.2253 798.26 37.2494C797.587 34.7552 795.736 32.6406 792.708 30.9056C789.792 29.1705 786.147 28.303 781.773 28.303C776.726 28.303 772.856 29.1705 770.164 30.9056C767.473 32.6406 766.127 35.189 766.127 38.5507C766.127 40.8279 766.856 42.7256 768.314 44.2438C769.884 45.762 772.351 47.1717 775.716 48.473C779.193 49.6658 784.128 50.9129 790.521 52.2142C800.951 54.0577 809.251 56.3892 815.42 59.2086C821.7 61.9196 826.299 65.4982 829.215 69.9442C832.131 74.2819 833.589 79.7581 833.589 86.373C833.589 93.6385 831.402 99.9823 827.028 105.404C822.766 110.718 816.766 114.839 809.027 117.767C801.4 120.586 792.652 121.996 782.782 121.996Z" fill="black"/>
<path d="M881.55 121.996C867.643 121.996 856.932 118.797 849.418 112.399C841.903 106.001 837.809 97.0002 837.136 85.397C837.024 83.9873 836.968 81.5474 836.968 78.0773C836.968 74.6072 837.024 72.1673 837.136 70.7575C837.809 59.2628 842.015 50.3165 849.754 43.9185C857.493 37.412 868.092 34.1588 881.55 34.1588C895.121 34.1588 905.776 37.412 913.515 43.9185C921.254 50.3165 925.46 59.2628 926.133 70.7575C926.245 72.1673 926.301 74.6072 926.301 78.0773C926.301 81.5474 926.245 83.9873 926.133 85.397C925.46 97.0002 921.366 106.001 913.852 112.399C906.337 118.797 895.57 121.996 881.55 121.996ZM881.55 102.151C886.485 102.151 890.13 100.741 892.486 97.9219C894.841 94.994 896.187 90.548 896.523 84.5837C896.635 83.4993 896.692 81.3305 896.692 78.0773C896.692 74.8241 896.635 72.6553 896.523 71.5709C896.187 65.7151 894.785 61.3232 892.317 58.3953C889.962 55.4674 886.373 54.0035 881.55 54.0035C872.241 54.0035 867.307 59.8593 866.746 71.5709L866.578 78.0773L866.746 84.5837C866.97 90.548 868.26 94.994 870.615 97.9219C873.083 100.741 876.728 102.151 881.55 102.151Z" fill="black"/>
<path d="M947.91 120.369C946.788 120.369 945.779 119.99 944.882 119.231C944.097 118.363 943.704 117.387 943.704 116.303V57.094H930.918C929.684 57.094 928.675 56.7145 927.89 55.9554C927.105 55.1963 926.712 54.2203 926.712 53.0275V39.8519C926.712 38.6591 927.105 37.6831 927.89 36.9241C928.675 36.165 929.684 35.7854 930.918 35.7854H943.704V30.5803C943.704 19.8446 946.844 12.0911 953.125 7.31974C959.518 2.43992 968.659 0 980.547 0H993.67C994.904 0 995.913 0.379539 996.698 1.13862C997.483 1.89771 997.876 2.87368 997.876 4.06652V17.2421C997.876 18.3265 997.483 19.3024 996.698 20.17C995.913 20.929 994.904 21.3086 993.67 21.3086H981.893C978.192 21.3086 975.557 22.1761 973.986 23.9112C972.416 25.5378 971.631 28.0319 971.631 31.3936V35.7854H999.128C1000.36 35.7854 1001.37 36.165 1002.16 36.9241C1002.94 37.6831 1003.33 38.6591 1003.33 39.8519V53.0275C1003.33 54.1119 1002.94 55.0879 1002.16 55.9554C1001.37 56.7145 1000.36 57.094 999.128 57.094H971.631V116.303C971.631 117.387 971.238 118.363 970.453 119.231C969.668 119.99 968.659 120.369 967.425 120.369H947.91Z" fill="black"/>
<path d="M1044.71 120.369C1021.49 120.369 1009.88 109.688 1009.88 88.3249V57.094H996.758C995.525 57.094 994.459 56.7145 993.562 55.9554C992.777 55.1963 992.384 54.2203 992.384 53.0275V39.8519C992.384 38.6591 992.777 37.6831 993.562 36.9241C994.459 36.165 995.525 35.7854 996.758 35.7854H1009.88V8.94635C1009.88 7.7535 1010.27 6.77754 1011.06 6.01846C1011.96 5.25937 1012.97 4.87982 1014.09 4.87982H1033.6C1034.84 4.87982 1035.85 5.25937 1036.63 6.01846C1037.42 6.77754 1037.81 7.7535 1037.81 8.94635V35.7854H1058.84C1060.07 35.7854 1061.08 36.165 1061.87 36.9241C1062.76 37.6831 1063.21 38.6591 1063.21 39.8519V53.0275C1063.21 54.2203 1062.76 55.1963 1061.87 55.9554C1061.08 56.7145 1060.07 57.094 1058.84 57.094H1037.81V86.0477C1037.81 94.0723 1041 98.0846 1047.4 98.0846H1060.35C1061.59 98.0846 1062.59 98.4641 1063.38 99.2232C1064.16 99.9823 1064.56 100.958 1064.56 102.151V116.303C1064.56 117.387 1064.16 118.363 1063.38 119.231C1062.59 119.99 1061.59 120.369 1060.35 120.369H1044.71Z" fill="black"/>
<path d="M1097.94 120.279C1096.37 120.279 1095.13 119.953 1094.23 119.303C1093.45 118.544 1092.83 117.513 1092.38 116.212L1068.16 40.9001L1067.82 39.2735C1067.82 38.2975 1068.21 37.4843 1069 36.8336C1069.78 36.0745 1070.68 35.695 1071.69 35.695H1089.02C1090.36 35.695 1091.49 36.0745 1092.38 36.8336C1093.28 37.4843 1093.84 38.2433 1094.07 39.1109L1108.2 85.6319L1123.34 39.2735C1123.56 38.406 1124.12 37.5927 1125.02 36.8336C1125.92 36.0745 1127.1 35.695 1128.55 35.695H1139.66C1141.12 35.695 1142.29 36.0745 1143.19 36.8336C1144.09 37.5927 1144.65 38.406 1144.87 39.2735L1160.01 85.6319L1174.15 39.1109C1174.37 38.2433 1174.93 37.4843 1175.83 36.8336C1176.73 36.0745 1177.85 35.695 1179.19 35.695H1196.52C1197.53 35.695 1198.43 36.0745 1199.21 36.8336C1200 37.4843 1200.39 38.2975 1200.39 39.2735L1200.05 40.9001L1175.83 116.212C1175.38 117.513 1174.71 118.544 1173.81 119.303C1173.02 119.953 1171.85 120.279 1170.28 120.279H1155.14C1152.22 120.279 1150.37 118.923 1149.58 116.212L1134.11 71.6431L1118.63 116.212C1117.84 118.923 1115.99 120.279 1113.08 120.279H1097.94Z" fill="black"/>
<path d="M1229.38 121.905C1223.44 121.905 1218 120.821 1213.06 118.652C1208.24 116.375 1204.42 113.339 1201.62 109.543C1198.93 105.639 1197.58 101.356 1197.58 96.6929C1197.58 89.2105 1200.72 83.192 1207 78.6375C1213.4 74.083 1222.15 70.9382 1233.25 69.2031L1254.28 66.1126V63.8353C1254.28 59.7146 1253.38 56.6782 1251.59 54.7263C1249.79 52.7744 1246.76 51.7984 1242.5 51.7984C1239.92 51.7984 1237.79 52.2322 1236.11 53.0997C1234.43 53.9672 1232.69 55.1601 1230.89 56.6782C1229.32 57.9795 1228.15 58.8471 1227.36 59.2808C1227.02 60.1483 1226.41 60.5821 1225.51 60.5821H1207.17C1206.05 60.5821 1205.1 60.2568 1204.31 59.6061C1203.64 58.8471 1203.36 57.9795 1203.47 57.0036C1203.58 54.0757 1205.04 50.8225 1207.85 47.2439C1210.76 43.6654 1215.14 40.5748 1220.97 37.9722C1226.91 35.3697 1234.2 34.0684 1242.84 34.0684C1256.63 34.0684 1266.84 37.0505 1273.46 43.0147C1280.07 48.8705 1283.38 56.7867 1283.38 66.7632V116.212C1283.38 117.297 1282.99 118.273 1282.21 119.14C1281.42 119.899 1280.41 120.279 1279.18 120.279H1259.66C1258.54 120.279 1257.53 119.899 1256.63 119.14C1255.85 118.273 1255.46 117.297 1255.46 116.212V110.519C1252.99 113.881 1249.51 116.646 1245.03 118.815C1240.65 120.875 1235.44 121.905 1229.38 121.905ZM1237.29 103.362C1242.45 103.362 1246.6 101.735 1249.74 98.4821C1252.99 95.2289 1254.61 90.4575 1254.61 84.168V81.8907L1240.31 84.3306C1230.22 86.0657 1225.17 89.4816 1225.17 94.5783C1225.17 97.2893 1226.35 99.4581 1228.71 101.085C1231.06 102.603 1233.92 103.362 1237.29 103.362Z" fill="black"/>
<path d="M1298.16 120.279C1296.93 120.279 1295.92 119.899 1295.13 119.14C1294.35 118.381 1293.96 117.405 1293.96 116.212V39.7615C1293.96 38.5686 1294.35 37.5927 1295.13 36.8336C1295.92 36.0745 1296.93 35.695 1298.16 35.695H1317.51C1318.74 35.695 1319.75 36.1287 1320.54 36.9963C1321.43 37.7553 1321.88 38.6771 1321.88 39.7615V46.2679C1328.05 39.2193 1336.35 35.695 1346.78 35.695H1354.18C1355.42 35.695 1356.43 36.0745 1357.21 36.8336C1358 37.5927 1358.39 38.5686 1358.39 39.7615V56.5156C1358.39 57.6 1358 58.576 1357.21 59.4435C1356.43 60.2026 1355.42 60.5821 1354.18 60.5821H1337.86C1333.27 60.5821 1329.68 61.8292 1327.1 64.3233C1324.63 66.709 1323.4 70.1249 1323.4 74.571V116.212C1323.4 117.405 1322.95 118.381 1322.05 119.14C1321.27 119.899 1320.26 120.279 1319.02 120.279H1298.16Z" fill="black"/>
<path d="M1401.49 121.905C1388.04 121.905 1377.44 118.381 1369.7 111.332C1361.96 104.284 1357.92 94.0361 1357.58 80.5894V74.8963C1358.03 62.1003 1362.13 52.1237 1369.87 44.9667C1377.72 37.7011 1388.2 34.0684 1401.33 34.0684C1410.86 34.0684 1418.88 35.9661 1425.38 39.7615C1432 43.4485 1436.94 48.5452 1440.19 55.0516C1443.55 61.5581 1445.24 69.0405 1445.24 77.4989V81.4027C1445.24 82.4871 1444.84 83.4631 1444.06 84.3306C1443.27 85.0897 1442.26 85.4693 1441.03 85.4693H1387.19V86.6079C1387.42 91.7046 1388.71 95.8253 1391.06 98.9701C1393.42 102.115 1396.84 103.687 1401.33 103.687C1404.13 103.687 1406.43 103.145 1408.22 102.061C1410.02 100.868 1411.64 99.4581 1413.1 97.8315C1414.11 96.6386 1414.9 95.9338 1415.46 95.7169C1416.13 95.3916 1417.14 95.2289 1418.49 95.2289H1439.35C1440.36 95.2289 1441.2 95.5542 1441.87 96.2049C1442.66 96.7471 1443.05 97.5062 1443.05 98.4821C1443.05 101.302 1441.37 104.555 1438 108.242C1434.75 111.929 1429.98 115.128 1423.7 117.839C1417.42 120.55 1410.02 121.905 1401.49 121.905ZM1415.63 69.3658V69.0405C1415.63 63.7269 1414.34 59.5519 1411.76 56.5156C1409.29 53.3708 1405.81 51.7984 1401.33 51.7984C1396.95 51.7984 1393.48 53.3708 1390.9 56.5156C1388.43 59.5519 1387.19 63.7269 1387.19 69.0405V69.3658H1415.63Z" fill="black"/>
</svg>
